<svg xmlns="http://www.w3.org/2000/svg" viewBox="0 0 81.51 27.24"><defs><style>.cls-1{fill:#fff;}</style></defs><g id="Layer_2" data-name="Layer 2"><g id="Layer_1-2" data-name="Layer 1"><path class="cls-1" d="M0,17a3.36,3.36,0,0,1,.42-1.77,3.8,3.8,0,0,1,1.2-1.29,10.53,10.53,0,0,1,1.77-.78,19.17,19.17,0,0,1,2.28-.45l4.71-.72v-.51a2,2,0,0,0-.63-1.59,3,3,0,0,0-1.92-.57,3.16,3.16,0,0,0-1.92.54,1.37,1.37,0,0,0-.78,1.29H.57A5,5,0,0,1,2.7,7.26,8.26,8.26,0,0,1,7.83,5.79a9,9,0,0,1,5.31,1.38,4.77,4.77,0,0,1,2,4.14v9.93h-4l-.3-2.07a6.15,6.15,0,0,1-5.25,2.37,6.21,6.21,0,0,1-4-1.23A4.18,4.18,0,0,1,0,17Zm4.74-.24a1.12,1.12,0,0,0,.54,1,2.57,2.57,0,0,0,1.53.39,4.69,4.69,0,0,0,1.71-.33,3.51,3.51,0,0,0,1.23-.93,2.65,2.65,0,0,0,.63-1.86v-.39l-3.63.6a4.52,4.52,0,0,0-1.5.54A1.12,1.12,0,0,0,4.74,16.71Z"/><path class="cls-1" d="M17.25,13.83a7.19,7.19,0,0,1,2.31-5.46,8.32,8.32,0,0,1,6-2.22,8.72,8.72,0,0,1,3.18.54A4.94,4.94,0,0,1,30.87,8.1V0h4.56V21.24H31.5l-.33-2a6.84,6.84,0,0,1-5.67,2.31,9,9,0,0,1-4.26-1,7.69,7.69,0,0,1-3-2.82A7.5,7.5,0,0,1,17.25,13.83Zm4.65,0a3.67,3.67,0,0,0,1.32,3A4.74,4.74,0,0,0,26.43,18a4.89,4.89,0,0,0,3.18-1.11,3.56,3.56,0,0,0,1.32-3v-.15a3.73,3.73,0,0,0-.69-2.19,4.25,4.25,0,0,0-1.65-1.38,5.31,5.31,0,0,0-2.16-.51,4.69,4.69,0,0,0-3.18,1.2A3.63,3.63,0,0,0,21.9,13.83Z"/><path class="cls-1" d="M36.63,27.24V6h4l.33,2a7,7,0,0,1,5.76-2.34,9.27,9.27,0,0,1,4.32,1,7.77,7.77,0,0,1,3,2.82,7.48,7.48,0,0,1,1.08,4A7.57,7.57,0,0,1,51,20.19a8.94,8.94,0,0,1-4.32,1,9.11,9.11,0,0,1-3.27-.54,5.22,5.22,0,0,1-2.13-1.44v8Zm4.53-13.86a3.9,3.9,0,0,0,1.38,3.15,5,5,0,0,0,3.18,1.11A4.61,4.61,0,0,0,49,16.47a3.86,3.86,0,0,0,1.32-3A3.88,3.88,0,0,0,49,10.38a4.82,4.82,0,0,0-3.27-1.14,4.71,4.71,0,0,0-3.18,1.14A3.68,3.68,0,0,0,41.16,13.38Z"/><path class="cls-1" d="M56.7,21.24V0h4.56V21.24Z"/><path class="cls-1" d="M63.18,21.24,69,13.41,63.39,5.85h5.55l3.39,4.5,3.42-4.5H81.3l-5.67,7.56,5.88,7.83H76l-3.66-4.86-3.6,4.86Z"/></g></g></svg>